<svg
 xmlns="http://www.w3.org/2000/svg"
 xmlns:xlink="http://www.w3.org/1999/xlink"
 width="29px" height="27px">
<path fill-rule="evenodd"  fill="rgb(255, 255, 255)"
 d="M28.292,3.554 L27.103,13.559 L17.424,10.713 L21.951,7.731 C20.009,4.869 16.835,3.161 13.360,3.161 C7.626,3.161 2.962,7.825 2.962,13.559 C2.962,19.293 7.626,23.957 13.360,23.957 C17.254,23.957 20.791,21.809 22.590,18.351 L25.103,19.659 C22.815,24.057 18.315,26.790 13.360,26.790 C6.064,26.790 0.128,20.855 0.128,13.559 C0.128,6.263 6.064,0.327 13.360,0.327 C17.796,0.327 21.846,2.514 24.314,6.174 L28.292,3.554 Z"/>
</svg>
